<svg xmlns="http://www.w3.org/2000/svg">
  <defs>
    <symbol id="help">
      <path fill-rule="evenodd" clip-rule="evenodd" d="M12 3C7.02944 3 3 7.02944 3 12C3 16.9706 7.02944 21 12 21C16.9706 21 21 16.9706 21 12C21 7.02944 16.9706 3 12 3ZM1 12C1 5.92487 5.92487 1 12 1C18.0751 1 23 5.92487 23 12C23 18.0751 18.0751 23 12 23C5.92487 23 1 18.0751 1 12Z" fill="currentColor"/>
      <path fill-rule="evenodd" clip-rule="evenodd" d="M12.2581 8.02432C11.7926 7.94447 11.3138 8.03195 10.9066 8.27126C10.4994 8.51058 10.1901 8.88629 10.0333 9.33184C9.85006 9.85283 9.27914 10.1266 8.75815 9.94333C8.23716 9.76006 7.96339 9.18915 8.14666 8.66816C8.46013 7.77705 9.07886 7.02563 9.89327 6.547C10.7077 6.06837 11.6652 5.89341 12.5962 6.05311C13.5273 6.2128 14.3717 6.69686 14.9801 7.41953C15.5883 8.14205 15.9213 9.05648 15.92 10.0009C15.9195 11.5313 14.7849 12.5419 13.9747 13.082C13.5391 13.3725 13.1105 13.586 12.7949 13.7263C12.6356 13.7971 12.5015 13.8508 12.4049 13.8876C12.3565 13.906 12.3173 13.9203 12.2887 13.9305L12.254 13.9427L12.2429 13.9464L12.239 13.9478L12.2375 13.9483C12.2372 13.9484 12.2362 13.9487 11.92 13L12.2362 13.9487C11.7123 14.1233 11.146 13.8402 10.9713 13.3162C10.7968 12.7926 11.0794 12.2267 11.6027 12.0517L11.6014 12.0521C11.6015 12.0521 11.6016 12.052 11.6027 12.0517L11.6187 12.0461C11.6341 12.0406 11.6593 12.0314 11.6929 12.0186C11.7603 11.9929 11.8606 11.9529 11.9826 11.8987C12.2294 11.789 12.5509 11.6275 12.8653 11.4179C13.5549 10.9582 13.92 10.4691 13.92 10L13.92 9.99851C13.9207 9.52619 13.7542 9.06886 13.45 8.70753C13.1459 8.34619 12.7236 8.10417 12.2581 8.02432Z" fill="currentColor"/>
      <path fill-rule="evenodd" clip-rule="evenodd" d="M12 15C12.5523 15 13 15.4477 13 16V16.5C13 17.0523 12.5523 17.5 12 17.5C11.4477 17.5 11 17.0523 11 16.5V16C11 15.4477 11.4477 15 12 15Z" fill="currentColor"/>
    </symbol>

    <symbol id="close">
      <path fill-rule="evenodd" clip-rule="evenodd" d="M12.4714 3.52861C12.7318 3.78896 12.7318 4.21107 12.4714 4.47141L4.47141 12.4714C4.21107 12.7318 3.78896 12.7318 3.52861 12.4714C3.26826 12.2111 3.26826 11.789 3.52861 11.5286L11.5286 3.52861C11.789 3.26826 12.2111 3.26826 12.4714 3.52861Z" fill="currentColot"/>
      <path fill-rule="evenodd" clip-rule="evenodd" d="M3.52861 3.52861C3.78896 3.26826 4.21107 3.26826 4.47141 3.52861L12.4714 11.5286C12.7318 11.789 12.7318 12.2111 12.4714 12.4714C12.2111 12.7318 11.789 12.7318 11.5286 12.4714L3.52861 4.47141C3.26826 4.21107 3.26826 3.78896 3.52861 3.52861Z" fill="currentColor"/>
    </symbol>

    <symbol id="expand">
      <path d="M1 1L9 9L17 1" stroke="#495057" stroke-width="2" stroke-linecap="round" stroke-linejoin="round" fill="none" />
    </symbol>

    <symbol id="menu">
      <path fill-rule="evenodd" clip-rule="evenodd" d="M2 12C2 11.4477 2.44772 11 3 11H21C21.5523 11 22 11.4477 22 12C22 12.5523 21.5523 13 21 13H3C2.44772 13 2 12.5523 2 12Z" fill="#212429"/>
      <path fill-rule="evenodd" clip-rule="evenodd" d="M2 6C2 5.44772 2.44772 5 3 5H21C21.5523 5 22 5.44772 22 6C22 6.55228 21.5523 7 21 7H3C2.44772 7 2 6.55228 2 6Z" fill="#212429"/>
      <path fill-rule="evenodd" clip-rule="evenodd" d="M2 18C2 17.4477 2.44772 17 3 17H21C21.5523 17 22 17.4477 22 18C22 18.5523 21.5523 19 21 19H3C2.44772 19 2 18.5523 2 18Z" fill="#212429"/>
    </symbol>

    <symbol id="success">
      <path d="M22 11.08V12C21.9988 14.1564 21.3005 16.2547 20.0093 17.9818C18.7182 19.709 16.9033 20.9725 14.8354 21.5839C12.7674 22.1953 10.5573 22.1219 8.53447 21.3746C6.51168 20.6273 4.78465 19.2461 3.61096 17.4371C2.43727 15.628 1.87979 13.4881 2.02168 11.3363C2.16356 9.18457 2.99721 7.13633 4.39828 5.49707C5.79935 3.85782 7.69279 2.71538 9.79619 2.24015C11.8996 1.76491 14.1003 1.98234 16.07 2.86" stroke="currentColor" fill="transparent" stroke-width="2" stroke-linecap="round" stroke-linejoin="round"/>
      <path d="M22 4L12 14.01L9 11.01" stroke="currentColor" fill="transparent" stroke-width="2" stroke-linecap="round" stroke-linejoin="round"/>
    </symbol>

    <symbol id="error">
      <path fill-rule="evenodd" clip-rule="evenodd" d="M10.5282 2.28306C10.9775 2.0301 11.4844 1.89722 12 1.89722C12.5156 1.89722 13.0225 2.0301 13.4718 2.28306C13.9211 2.53601 14.2976 2.90049 14.565 3.34133L14.5679 3.34608L23.0379 17.4861L23.046 17.4999C23.308 17.9535 23.4466 18.4678 23.448 18.9917C23.4495 19.5155 23.3138 20.0306 23.0544 20.4857C22.795 20.9408 22.4209 21.32 21.9694 21.5857C21.518 21.8513 21.0048 21.9941 20.481 21.9999L20.47 22L3.51903 22C2.99522 21.9942 2.48206 21.8513 2.03059 21.5857C1.57912 21.32 1.20507 20.9408 0.94567 20.4857C0.686267 20.0306 0.550547 19.5155 0.552014 18.9917C0.55348 18.4678 0.692083 17.9535 0.95403 17.4999L0.962153 17.4861L9.43215 3.34609L10.29 3.85995L9.43502 3.34133C9.70243 2.90049 10.0789 2.53601 10.5282 2.28306ZM11.1462 4.3766L2.68271 18.5058C2.59753 18.6556 2.55249 18.8249 2.55201 18.9973C2.55152 19.1719 2.59676 19.3436 2.68322 19.4953C2.76969 19.647 2.89438 19.7734 3.04487 19.8619C3.19404 19.9497 3.36342 19.9973 3.53642 20H20.4636C20.6366 19.9973 20.806 19.9497 20.9552 19.8619C21.1057 19.7734 21.2303 19.647 21.3168 19.4953C21.4033 19.3436 21.4485 19.1719 21.448 18.9973C21.4476 18.8249 21.4025 18.6556 21.3174 18.5058L12.855 4.37859C12.8546 4.37792 12.8542 4.37726 12.8538 4.3766C12.7648 4.23054 12.6397 4.10977 12.4906 4.02583C12.3409 3.94151 12.1719 3.89722 12 3.89722C11.8282 3.89722 11.6592 3.94151 11.5094 4.02583C11.3603 4.10977 11.2353 4.23054 11.1462 4.3766Z" fill="currentColor"/>
      <path fill-rule="evenodd" clip-rule="evenodd" d="M12 8C12.5523 8 13 8.44772 13 9V13C13 13.5523 12.5523 14 12 14C11.4477 14 11 13.5523 11 13V9C11 8.44772 11.4477 8 12 8Z" fill="currentColor"/>
      <path fill-rule="evenodd" clip-rule="evenodd" d="M12 15C12.5523 15 13 15.4477 13 16V16.5C13 17.0523 12.5523 17.5 12 17.5C11.4477 17.5 11 17.0523 11 16.5V16C11 15.4477 11.4477 15 12 15Z" fill="currentColor"/>
    </symbol>
  </defs>
</svg>